<?xml version="1.0" encoding="UTF-8"?>
<svg id="Layer_1" data-name="Layer 1" xmlns="http://www.w3.org/2000/svg" viewBox="0 0 1110.37 240.09">
  <defs>
    <style>
      .cls-1 {
        fill: #d01525;
      }

      .cls-2 {
        fill: #ef7d00;
      }
    </style>
  </defs>
  <g>
    <path d="M1024.24,184.41l7.26-.76c.43,2.6,1.31,4.5,2.65,5.72,1.35,1.2,3.14,1.82,5.39,1.82,2.41,0,4.22-.54,5.42-1.64,1.22-1.08,1.83-2.34,1.83-3.78,0-.94-.25-1.71-.77-2.38-.5-.66-1.4-1.23-2.67-1.7-.88-.34-2.87-.89-5.97-1.72-4-1.05-6.79-2.34-8.4-3.89-2.28-2.16-3.41-4.79-3.41-7.89,0-2.01.54-3.88,1.61-5.63,1.06-1.74,2.6-3.05,4.59-3.98,2.01-.91,4.43-1.37,7.27-1.37,4.64,0,8.11,1.08,10.47,3.25,2.33,2.16,3.57,5.04,3.68,8.67l-7.45.34c-.32-2.02-1-3.47-2.05-4.35-1.04-.89-2.62-1.33-4.72-1.33s-3.85.47-5.08,1.42c-.79.61-1.19,1.42-1.19,2.44,0,.93.37,1.72,1.1,2.39.95.83,3.23,1.71,6.85,2.62,3.62.91,6.31,1.85,8.04,2.83,1.74.98,3.09,2.29,4.08,4,.98,1.69,1.47,3.78,1.47,6.25,0,2.24-.58,4.37-1.76,6.32-1.16,1.96-2.83,3.44-4.98,4.38-2.15.96-4.82,1.43-8.03,1.43-4.66,0-8.24-1.15-10.75-3.44-2.5-2.29-4-5.65-4.48-10.03M980.89,177.51c0,4.45.98,7.82,2.9,10.12,1.93,2.29,4.37,3.44,7.35,3.44s5.4-1.13,7.32-3.42c1.89-2.28,2.85-5.68,2.85-10.23s-.94-7.86-2.79-10.08c-1.85-2.23-4.32-3.32-7.38-3.32s-5.55,1.11-7.42,3.35c-1.89,2.24-2.83,5.61-2.83,10.15M973.22,177.78c0-4.01.55-7.37,1.68-10.08.85-1.98,1.98-3.79,3.44-5.39,1.45-1.58,3.04-2.76,4.76-3.52,2.31-1.05,4.95-1.57,7.96-1.57,5.44,0,9.79,1.8,13.05,5.39,3.26,3.59,4.9,8.58,4.9,14.98s-1.62,11.3-4.86,14.89c-3.24,3.57-7.58,5.36-12.99,5.36s-9.85-1.77-13.09-5.34c-3.24-3.56-4.85-8.48-4.85-14.72M949.81,182.74l7.22,2.43c-1.12,4.29-2.96,7.49-5.54,9.56-2.56,2.07-5.83,3.12-9.8,3.12-4.9,0-8.93-1.77-12.08-5.34-3.14-3.56-4.74-8.44-4.74-14.62,0-6.54,1.6-11.62,4.76-15.24,3.17-3.61,7.33-5.43,12.51-5.43,4.52,0,8.18,1.43,10.99,4.27,1.69,1.69,2.94,4.1,3.78,7.25l-7.39,1.87c-.41-2.04-1.33-3.66-2.72-4.84-1.38-1.18-3.06-1.75-5.04-1.75-2.73,0-4.96,1.03-6.65,3.13-1.71,2.07-2.56,5.46-2.56,10.15,0,4.96.83,8.51,2.52,10.62,1.68,2.11,3.86,3.15,6.56,3.15,1.96,0,3.67-.66,5.09-2.01,1.43-1.33,2.46-3.46,3.08-6.32M900.33,157.89h7.44v39.3h-7.44v-39.3ZM859.51,174.51h5.52c3.57,0,5.79-.16,6.68-.49.88-.32,1.58-.88,2.09-1.65.5-.79.75-1.77.75-2.95,0-1.33-.34-2.39-.99-3.2-.65-.83-1.59-1.33-2.8-1.55-.61-.08-2.43-.12-5.44-.12l-5.82-.02v9.98ZM852.06,197.19v-39.3h15.68c3.94,0,6.8.35,8.59,1.06,1.79.71,3.22,1.96,4.3,3.76,1.07,1.8,1.61,3.88,1.61,6.19,0,2.95-.83,5.39-2.44,7.32-1.63,1.9-4.06,3.14-7.31,3.62,1.62,1.01,2.96,2.11,4,3.31,1.05,1.2,2.45,3.32,4.23,6.37l4.51,7.67h-8.91l-5.39-8.56c-1.91-3.05-3.22-4.97-3.92-5.77-.71-.79-1.46-1.33-2.25-1.64-.78-.3-2.03-.44-3.74-.44h-1.51v16.4h-7.45ZM817.56,197.19v-32.65h-10.96v-6.64h29.32v6.64h-10.92v32.65h-7.44ZM773.01,155.66l3.48-8.03h7.93l-6.93,8.03h-4.48ZM763.56,197.19v-39.3h27.35v6.64h-19.91v8.72h18.52v6.62h-18.52v10.69h20.62v6.63h-28.06ZM720.96,197.19v-38.98h7.45v32.35h18.52v6.63h-25.97ZM675.08,197.19v-39.3h27.35v6.64h-19.91v8.72h18.52v6.62h-18.52v10.69h20.62v6.63h-28.06ZM584.53,184.41l7.25-.76c.44,2.6,1.32,4.5,2.66,5.72,1.33,1.2,3.13,1.82,5.39,1.82,2.4,0,4.21-.54,5.42-1.64,1.22-1.08,1.83-2.34,1.83-3.78,0-.94-.25-1.71-.77-2.38-.5-.66-1.4-1.23-2.68-1.7-.87-.34-2.87-.89-5.96-1.72-4-1.05-6.79-2.34-8.4-3.89-2.26-2.16-3.4-4.79-3.4-7.89,0-2.01.52-3.88,1.59-5.63,1.06-1.74,2.6-3.05,4.6-3.98,2.01-.91,4.43-1.37,7.26-1.37,4.64,0,8.13,1.08,10.46,3.25,2.35,2.16,3.57,5.04,3.69,8.67l-7.44.34c-.31-2.02-1.01-3.47-2.06-4.35-1.05-.89-2.61-1.33-4.72-1.33s-3.87.47-5.07,1.42c-.8.61-1.2,1.42-1.2,2.44,0,.93.37,1.72,1.1,2.39.94.83,3.23,1.71,6.85,2.62,3.63.91,6.3,1.85,8.04,2.83,1.75.98,3.09,2.29,4.08,4,.98,1.69,1.47,3.78,1.47,6.25,0,2.24-.57,4.37-1.76,6.32-1.18,1.96-2.83,3.44-4.98,4.38-2.15.96-4.83,1.43-8.03,1.43-4.66,0-8.24-1.15-10.75-3.44-2.5-2.29-4-5.65-4.48-10.03M560.56,157.89h7.45v39.3h-7.45v-39.3ZM531.82,181.64l-5.08-14.58-4.98,14.58h10.06ZM545.54,197.19h-8.12l-3.22-8.93h-14.75l-3.03,8.93h-7.91l14.37-39.3h7.88l14.78,39.3ZM486.4,157.89h7.44v39.3h-7.44v-39.3ZM445.58,174.51h5.5c3.59,0,5.81-.16,6.7-.49.89-.32,1.58-.88,2.09-1.65.51-.79.75-1.77.75-2.95,0-1.33-.33-2.39-.99-3.2-.65-.83-1.6-1.33-2.81-1.55-.61-.08-2.43-.12-5.44-.12l-5.82-.02v9.98ZM438.12,197.19v-39.3h15.69c3.94,0,6.8.35,8.59,1.06,1.79.71,3.23,1.96,4.3,3.76,1.07,1.8,1.61,3.88,1.61,6.19,0,2.95-.82,5.39-2.44,7.32-1.62,1.9-4.05,3.14-7.29,3.62,1.61,1.01,2.92,2.11,3.99,3.31,1.05,1.2,2.45,3.32,4.22,6.37l4.51,7.67h-8.91l-5.39-8.56c-1.91-3.05-3.22-4.97-3.92-5.77-.71-.79-1.46-1.33-2.24-1.64-.79-.3-2.04-.44-3.75-.44h-1.51v16.4h-7.46ZM392.42,197.19v-39.3h27.35v6.64h-19.91v8.72h18.52v6.62h-18.52v10.69h20.62v6.63h-28.06ZM357.92,197.19v-32.65h-10.95v-6.64h29.33v6.64h-10.92v32.65h-7.46ZM324.47,181.64l-5.08-14.58-4.98,14.58h10.06ZM338.18,197.19h-8.11l-3.22-8.93h-14.75l-3.03,8.93h-7.91l14.37-39.3h7.88l14.77,39.3ZM250.57,197.19v-39.3h11.15l6.69,26.8,6.61-26.8h11.18v39.3h-6.91v-30.94l-7.33,30.94h-7.17l-7.31-30.94v30.94h-6.91Z"/>
    <path class="cls-2" d="M495.2,136.31l28.9-93.7h32.78l1.62,70.11,45.76-70.11h29.37l-28.9,93.7h-18.19l23.21-74.94-48.51,74.94h-22.55l-1.89-74.94-23.12,74.94h-18.47ZM659.06,99.17h27.19l-1.8-36-25.39,36ZM610.74,136.31l68.31-93.7h25.58l8.15,93.7h-24.35l-.85-19.05h-41.12l-12.89,19.05h-22.84ZM725.78,105.04h21.41l-.28.95c-1.41,4.64-1.23,8.05.57,10.23,1.71,2.18,5.22,3.31,10.33,3.31,4.64,0,8.33-.85,11.08-2.46,2.75-1.61,4.65-4.08,5.59-7.3,1.52-4.83-2.66-8.34-12.41-10.61-1.99-.47-3.5-.85-4.55-1.14-9.48-2.46-15.73-5.68-18.67-9.85-2.84-4.17-3.22-9.95-.95-17.34,3.03-9.57,8.24-16.87,15.92-21.98,7.58-5.02,17.15-7.58,28.61-7.58s18.29,2.28,22.17,6.82c3.79,4.55,4.46,11.65,1.89,21.41h-20.27l.1-.28c1.04-3.41.66-5.97-.95-7.77-1.7-1.7-4.64-2.56-9-2.56s-7.68.76-10.43,2.27c-2.75,1.52-4.55,3.7-5.41,6.45-1.41,4.45,2.66,7.87,12.04,10.14,1.61.47,2.94.76,3.8,1.04l.85.19c10.33,2.65,16.67,5.97,19.04,9.76,1.42,2.27,2.18,5.02,2.18,8.24.18,3.22-.38,6.82-1.62,10.61-2.94,9.76-8.43,17.14-16.29,22.36-7.96,5.31-17.72,7.86-29.47,7.86s-19.9-2.56-24.26-7.67c-4.26-5.12-4.82-12.79-1.6-23.12l.57-1.99ZM822.09,136.31l22.83-74.09h-28.61l6.06-19.61h78.64l-6.07,19.61h-28.61l-22.84,74.09h-21.41ZM885.59,136.31l28.9-93.7h64.23l-6.06,19.9h-43.49l-5.02,16.3h41.31l-5.88,19.23h-41.31l-5.59,18.1h44.53l-6.16,20.18h-65.47ZM1007.52,60.7l-6.72,21.89h13.35c6.26,0,10.9-.85,13.74-2.56,2.84-1.71,4.93-4.55,6.25-8.72,1.23-3.89.95-6.73-.76-8.24-1.71-1.61-5.87-2.37-12.5-2.37h-13.36ZM963.27,136.31l28.9-93.7h41.3c6.06,0,10.52.28,13.46.95,2.94.57,5.4,1.61,7.29,2.94,2.56,1.9,4.07,4.55,4.74,7.96.67,3.32.29,7.2-1.04,11.56-2.08,6.54-5.4,11.65-10.04,15.64-4.64,3.98-10.61,6.63-18,8.05,5.22.09,8.81.95,10.99,2.65,2.18,1.71,3.12,4.36,2.93,8.15-.09,1.99-.85,7.01-2.46,14.97-1.52,8.05-2.47,14.97-2.85,20.85h-22.27c-.18-1.7.2-4.93,1.14-9.66.09-.57.19-1.04.28-1.33l2.38-12.51c1.04-5.02.85-8.43-.38-9.95-1.23-1.61-5.12-2.37-11.75-2.37h-12.7l-10.99,35.81h-20.94Z"/>
    <path class="cls-1" d="M294.72,60.7l-6.72,21.89h13.36c6.35,0,10.9-.85,13.83-2.56,2.84-1.71,4.93-4.55,6.16-8.72,1.23-3.89,1.04-6.73-.66-8.24-1.7-1.61-5.87-2.37-12.6-2.37h-13.36ZM250.57,136.31l28.9-93.7h41.21c6.06,0,10.61.28,13.55.95,2.94.57,5.4,1.61,7.29,2.94,2.46,1.9,4.07,4.55,4.64,7.96.66,3.32.28,7.2-1.04,11.56-1.99,6.54-5.31,11.65-9.95,15.64-4.64,3.98-10.71,6.63-18,8.05,5.11.09,8.81.95,10.89,2.65,2.18,1.71,3.13,4.36,2.94,8.15,0,1.99-.85,7.01-2.47,14.97-1.51,8.05-2.46,14.97-2.84,20.85h-22.17c-.19-1.7.19-4.93,1.14-9.66.09-.57.19-1.04.28-1.33l2.37-12.51c.95-5.02.86-8.43-.37-9.95-1.33-1.61-5.21-2.37-11.75-2.37h-12.7l-11.08,35.81h-20.85ZM336.98,136.31l28.9-93.7h64.33l-6.16,19.9h-43.39l-5.02,16.3h41.31l-5.97,19.23h-41.31l-5.59,18.1h44.62l-6.25,20.18h-65.47ZM435.33,136.31l10.33-33.73-15.54-59.97h25.3l9,38.75,32.03-38.75h23.21l-52.68,60.35-10.32,33.35h-21.32Z"/>
  </g>
  <g>
    <path class="cls-2" d="M206.26,120.08c0,21.62-8.91,41.17-23.26,55.16l-75.9-71.6c8.66-5.52,24.77-11.9,24.77-12.02l-42.57-37.42c11.56-7.03,25.12-11.09,39.63-11.15h.42c42.49.06,76.91,34.53,76.91,77.03Z"/>
    <path class="cls-1" d="M180.59,177.49c-11.22,10.06-25.41,16.86-41.11,18.94-.06.01-.13.02-.19.03-.2.03-.4.05-.6.07-.6.07-1.2.14-1.8.19-2.41.22-4.84.33-7.31.33-10.14,0-19.85-1.9-28.76-5.36-.37-.14-.74-.29-1.1-.44-.16-.06-.31-.13-.46-.19-27.65-11.7-47.05-39.08-47.05-70.98,0-21.79,9.05-41.47,23.59-55.48l34.31,30.51-21.52,9.98,92,72.4Z"/>
  </g>
</svg>
